<mxfile host="app.diagrams.net" modified="2022-03-07T08:46:03.586Z" agent="5.0 (Macintosh; Intel Mac OS X 10_15_7) AppleWebKit/605.1.15 (KHTML, like Gecko) Version/15.3 Safari/605.1.15" etag="herWrakCdTl3epmq2MUf" version="16.6.6" type="github">
  <diagram id="wVtlZo8cVKPB0jHUhsLX" name="Page-1">
    <mxGraphModel dx="770" dy="1054" grid="1" gridSize="10" guides="1" tooltips="1" connect="1" arrows="1" fold="1" page="1" pageScale="1" pageWidth="350" pageHeight="350" math="0" shadow="0">
      <root>
        <mxCell id="0" />
        <mxCell id="1" parent="0" />
        <mxCell id="JLO5sq69580xviN0e8U7-1" value="" style="endArrow=classic;html=1;rounded=0;" parent="1" edge="1">
          <mxGeometry width="50" height="50" relative="1" as="geometry">
            <mxPoint x="40" y="308" as="sourcePoint" />
            <mxPoint x="40" y="28" as="targetPoint" />
          </mxGeometry>
        </mxCell>
        <mxCell id="JLO5sq69580xviN0e8U7-2" value="" style="endArrow=classic;html=1;rounded=0;" parent="1" edge="1">
          <mxGeometry width="50" height="50" relative="1" as="geometry">
            <mxPoint x="40" y="308" as="sourcePoint" />
            <mxPoint x="320" y="308" as="targetPoint" />
          </mxGeometry>
        </mxCell>
        <mxCell id="JLO5sq69580xviN0e8U7-3" value="h" style="text;html=1;strokeColor=none;fillColor=none;align=center;verticalAlign=middle;whiteSpace=wrap;rounded=0;" parent="1" vertex="1">
          <mxGeometry x="290" y="308" width="20" height="15" as="geometry" />
        </mxCell>
        <mxCell id="JLO5sq69580xviN0e8U7-4" value="P" style="text;html=1;strokeColor=none;fillColor=none;align=center;verticalAlign=middle;whiteSpace=wrap;rounded=0;" parent="1" vertex="1">
          <mxGeometry x="10" y="38" width="20" height="20" as="geometry" />
        </mxCell>
        <mxCell id="JLO5sq69580xviN0e8U7-7" value="" style="curved=1;endArrow=none;html=1;rounded=0;endFill=0;" parent="1" edge="1">
          <mxGeometry width="50" height="50" relative="1" as="geometry">
            <mxPoint x="70" y="268" as="sourcePoint" />
            <mxPoint x="230" y="288" as="targetPoint" />
            <Array as="points">
              <mxPoint x="100" y="178" />
              <mxPoint x="150" y="78" />
              <mxPoint x="260" y="48" />
              <mxPoint x="270" y="168" />
            </Array>
          </mxGeometry>
        </mxCell>
        <mxCell id="JLO5sq69580xviN0e8U7-8" value="" style="endArrow=oval;html=1;rounded=0;curved=1;endFill=1;startArrow=oval;startFill=1;endSize=4;startSize=4;" parent="1" edge="1">
          <mxGeometry width="50" height="50" relative="1" as="geometry">
            <mxPoint x="137" y="108" as="sourcePoint" />
            <mxPoint x="310" y="108" as="targetPoint" />
          </mxGeometry>
        </mxCell>
        <mxCell id="JLO5sq69580xviN0e8U7-10" value="" style="endArrow=oval;html=1;rounded=0;endFill=1;startArrow=oval;startFill=1;endSize=4;startSize=4;strokeColor=none;" parent="1" edge="1">
          <mxGeometry width="50" height="50" relative="1" as="geometry">
            <mxPoint x="137" y="108" as="sourcePoint" />
            <mxPoint x="137" y="158" as="targetPoint" />
          </mxGeometry>
        </mxCell>
        <mxCell id="JLO5sq69580xviN0e8U7-11" value="" style="endArrow=oval;html=1;rounded=0;curved=1;endFill=1;startArrow=oval;startFill=1;endSize=4;startSize=4;" parent="1" edge="1">
          <mxGeometry width="50" height="50" relative="1" as="geometry">
            <mxPoint x="137" y="158" as="sourcePoint" />
            <mxPoint x="263" y="158" as="targetPoint" />
          </mxGeometry>
        </mxCell>
        <mxCell id="JLO5sq69580xviN0e8U7-12" value="" style="endArrow=oval;html=1;rounded=0;curved=1;endFill=1;startArrow=oval;startFill=1;endSize=4;startSize=4;" parent="1" edge="1">
          <mxGeometry width="50" height="50" relative="1" as="geometry">
            <mxPoint x="280" y="158" as="sourcePoint" />
            <mxPoint x="310" y="108" as="targetPoint" />
          </mxGeometry>
        </mxCell>
        <mxCell id="JLO5sq69580xviN0e8U7-13" value="" style="endArrow=oval;html=1;rounded=0;curved=1;endFill=1;startArrow=oval;startFill=1;endSize=4;startSize=4;" parent="1" edge="1">
          <mxGeometry width="50" height="50" relative="1" as="geometry">
            <mxPoint x="110" y="158" as="sourcePoint" />
            <mxPoint x="137" y="158" as="targetPoint" />
          </mxGeometry>
        </mxCell>
        <mxCell id="JLO5sq69580xviN0e8U7-14" value="" style="endArrow=oval;html=1;rounded=0;curved=1;endFill=1;startArrow=oval;startFill=1;endSize=4;startSize=4;" parent="1" edge="1">
          <mxGeometry width="50" height="50" relative="1" as="geometry">
            <mxPoint x="110" y="158" as="sourcePoint" />
            <mxPoint x="110" y="208" as="targetPoint" />
          </mxGeometry>
        </mxCell>
        <mxCell id="JLO5sq69580xviN0e8U7-15" value="" style="endArrow=oval;html=1;rounded=0;curved=1;endFill=1;startArrow=oval;startFill=1;endSize=4;startSize=4;" parent="1" edge="1">
          <mxGeometry width="50" height="50" relative="1" as="geometry">
            <mxPoint x="110" y="208" as="sourcePoint" />
            <mxPoint x="253" y="208" as="targetPoint" />
          </mxGeometry>
        </mxCell>
        <mxCell id="JLO5sq69580xviN0e8U7-16" value="" style="endArrow=oval;html=1;rounded=0;curved=1;endFill=1;startArrow=oval;startFill=1;endSize=4;startSize=4;" parent="1" edge="1">
          <mxGeometry width="50" height="50" relative="1" as="geometry">
            <mxPoint x="300" y="158" as="sourcePoint" />
            <mxPoint x="253" y="208" as="targetPoint" />
          </mxGeometry>
        </mxCell>
        <mxCell id="JLO5sq69580xviN0e8U7-17" value="" style="endArrow=oval;html=1;rounded=0;curved=1;endFill=1;startArrow=oval;startFill=1;endSize=4;startSize=4;" parent="1" edge="1">
          <mxGeometry width="50" height="50" relative="1" as="geometry">
            <mxPoint x="300" y="158" as="sourcePoint" />
            <mxPoint x="263" y="158" as="targetPoint" />
          </mxGeometry>
        </mxCell>
        <mxCell id="JLO5sq69580xviN0e8U7-18" value="" style="endArrow=classic;html=1;rounded=0;endSize=5;strokeWidth=0;" parent="1" edge="1">
          <mxGeometry width="50" height="50" relative="1" as="geometry">
            <mxPoint x="240" y="108" as="sourcePoint" />
            <mxPoint x="220" y="108" as="targetPoint" />
          </mxGeometry>
        </mxCell>
        <mxCell id="JLO5sq69580xviN0e8U7-19" value="" style="endArrow=classic;html=1;rounded=0;endSize=5;strokeWidth=0;" parent="1" edge="1">
          <mxGeometry width="50" height="50" relative="1" as="geometry">
            <mxPoint x="137" y="117" as="sourcePoint" />
            <mxPoint x="137" y="138" as="targetPoint" />
          </mxGeometry>
        </mxCell>
        <mxCell id="JLO5sq69580xviN0e8U7-20" value="" style="endArrow=oval;html=1;rounded=0;curved=1;endFill=1;startArrow=oval;startFill=1;endSize=4;startSize=4;" parent="1" edge="1">
          <mxGeometry width="50" height="50" relative="1" as="geometry">
            <mxPoint x="137" y="158" as="sourcePoint" />
            <mxPoint x="137" y="108" as="targetPoint" />
          </mxGeometry>
        </mxCell>
        <mxCell id="JLO5sq69580xviN0e8U7-22" value="" style="endArrow=classic;html=1;rounded=0;endSize=5;strokeWidth=0;" parent="1" edge="1">
          <mxGeometry width="50" height="50" relative="1" as="geometry">
            <mxPoint x="110" y="168.0000000000001" as="sourcePoint" />
            <mxPoint x="110" y="189" as="targetPoint" />
          </mxGeometry>
        </mxCell>
        <mxCell id="JLO5sq69580xviN0e8U7-23" value="" style="endArrow=classic;html=1;rounded=0;endSize=5;strokeWidth=0;" parent="1" edge="1">
          <mxGeometry width="50" height="50" relative="1" as="geometry">
            <mxPoint x="170" y="208" as="sourcePoint" />
            <mxPoint x="187" y="208" as="targetPoint" />
          </mxGeometry>
        </mxCell>
        <mxCell id="JLO5sq69580xviN0e8U7-24" value="" style="endArrow=classic;html=1;rounded=0;endSize=5;strokeWidth=0;" parent="1" edge="1">
          <mxGeometry width="50" height="50" relative="1" as="geometry">
            <mxPoint x="265" y="195" as="sourcePoint" />
            <mxPoint x="280" y="179" as="targetPoint" />
          </mxGeometry>
        </mxCell>
        <mxCell id="JLO5sq69580xviN0e8U7-26" value="" style="endArrow=classic;html=1;rounded=0;endSize=5;strokeWidth=0;" parent="1" edge="1">
          <mxGeometry width="50" height="50" relative="1" as="geometry">
            <mxPoint x="287" y="146" as="sourcePoint" />
            <mxPoint x="298" y="128" as="targetPoint" />
          </mxGeometry>
        </mxCell>
        <mxCell id="JLO5sq69580xviN0e8U7-27" value="&lt;font style=&quot;font-size: 10px&quot;&gt;9&lt;/font&gt;" style="text;html=1;strokeColor=none;fillColor=none;align=center;verticalAlign=middle;whiteSpace=wrap;rounded=0;" parent="1" vertex="1">
          <mxGeometry x="100" y="208" width="20" height="20" as="geometry" />
        </mxCell>
        <mxCell id="JLO5sq69580xviN0e8U7-28" value="&lt;font style=&quot;font-size: 10px&quot;&gt;1&lt;/font&gt;" style="text;html=1;strokeColor=none;fillColor=none;align=center;verticalAlign=middle;whiteSpace=wrap;rounded=0;" parent="1" vertex="1">
          <mxGeometry x="254" y="208" width="20" height="20" as="geometry" />
        </mxCell>
        <mxCell id="JLO5sq69580xviN0e8U7-29" value="&lt;font style=&quot;font-size: 10px&quot;&gt;2&lt;/font&gt;" style="text;html=1;strokeColor=none;fillColor=none;align=center;verticalAlign=middle;whiteSpace=wrap;rounded=0;" parent="1" vertex="1">
          <mxGeometry x="300" y="148" width="20" height="20" as="geometry" />
        </mxCell>
        <mxCell id="JLO5sq69580xviN0e8U7-30" value="&lt;font style=&quot;font-size: 10px&quot;&gt;3&lt;/font&gt;" style="text;html=1;strokeColor=none;fillColor=none;align=center;verticalAlign=middle;whiteSpace=wrap;rounded=0;" parent="1" vertex="1">
          <mxGeometry x="244" y="138" width="20" height="20" as="geometry" />
        </mxCell>
        <mxCell id="JLO5sq69580xviN0e8U7-32" value="&lt;font style=&quot;font-size: 10px&quot;&gt;4&lt;/font&gt;" style="text;html=1;strokeColor=none;fillColor=none;align=center;verticalAlign=middle;whiteSpace=wrap;rounded=0;" parent="1" vertex="1">
          <mxGeometry x="270" y="158" width="20" height="20" as="geometry" />
        </mxCell>
        <mxCell id="JLO5sq69580xviN0e8U7-33" value="&lt;font style=&quot;font-size: 10px&quot;&gt;5&lt;/font&gt;" style="text;html=1;strokeColor=none;fillColor=none;align=center;verticalAlign=middle;whiteSpace=wrap;rounded=0;" parent="1" vertex="1">
          <mxGeometry x="310" y="98" width="20" height="20" as="geometry" />
        </mxCell>
        <mxCell id="JLO5sq69580xviN0e8U7-34" value="&lt;font style=&quot;font-size: 10px&quot;&gt;6&lt;/font&gt;" style="text;html=1;strokeColor=none;fillColor=none;align=center;verticalAlign=middle;whiteSpace=wrap;rounded=0;" parent="1" vertex="1">
          <mxGeometry x="120" y="88" width="20" height="20" as="geometry" />
        </mxCell>
        <mxCell id="JLO5sq69580xviN0e8U7-35" value="&lt;font style=&quot;font-size: 10px&quot;&gt;7&lt;/font&gt;" style="text;html=1;strokeColor=none;fillColor=none;align=center;verticalAlign=middle;whiteSpace=wrap;rounded=0;" parent="1" vertex="1">
          <mxGeometry x="120" y="138" width="20" height="20" as="geometry" />
        </mxCell>
        <mxCell id="JLO5sq69580xviN0e8U7-36" value="&lt;font style=&quot;font-size: 10px&quot;&gt;8&lt;/font&gt;" style="text;html=1;strokeColor=none;fillColor=none;align=center;verticalAlign=middle;whiteSpace=wrap;rounded=0;" parent="1" vertex="1">
          <mxGeometry x="90" y="138" width="20" height="20" as="geometry" />
        </mxCell>
      </root>
    </mxGraphModel>
  </diagram>
</mxfile>
